<svg width="512" height="512" viewBox="0 0 512 512" fill="none" xmlns="http://www.w3.org/2000/svg">
<path d="M51.2 0H460.8C474.379 0 487.402 5.99263 497.004 16.6596C506.606 27.3265 512 41.794 512 56.8793V369.716C512 384.801 506.606 399.268 497.004 409.935C487.402 420.602 474.379 426.595 460.8 426.595H222.976L150.016 507.648C148.241 509.694 145.954 511.103 143.451 511.692C140.949 512.28 138.344 512.022 135.975 510.951C133.605 509.88 131.579 508.044 130.157 505.681C128.736 503.318 127.985 500.536 128 497.694V426.595H51.2C37.6209 426.595 24.598 420.602 14.9961 409.935C5.39428 399.268 0 384.801 0 369.716V56.8793C0 41.794 5.39428 27.3265 14.9961 16.6596C24.598 5.99263 37.6209 0 51.2 0Z" fill="#1677FF"/>
<path d="M248.386 220.366L88.3589 291.529V231.351L190.312 192.187L188.591 195.053V188.367L190.312 191.232L88.3589 152.069V91.8908L248.386 163.054V220.366Z" fill="white"/>
<path d="M416.369 291.051V337.856H267.096V291.051H416.369Z" fill="white"/>
</svg>
