<svg xmlns="http://www.w3.org/2000/svg" width="339" height="339" viewBox="76.5 65.5 339.0 339.0">
<path d="M0 0 C1.78757955 0.10706679 3.57525725 0.21250562 5.36302185 0.31643677 C10.16068099 0.59957838 14.95675862 0.90416003 19.75284576 1.21264267 C24.76201231 1.53093603 29.77238281 1.82888848 34.78271484 2.12817383 C41.9249814 2.55635248 49.06685099 2.9902693 56.2082901 3.4320364 C68.0169848 4.16209686 79.82745337 4.85048564 91.640625 5.50390625 C92.44041716 5.5482247 93.24020931 5.59254314 94.06423759 5.63820457 C97.95641427 5.85376548 101.8486298 6.06861301 105.74087524 6.28292847 C124.40460479 7.3108975 143.06304071 8.39054658 161.71513367 9.61442566 C173.49655933 10.38176879 185.28265037 11.03423002 197.07244873 11.65765381 C200.60273432 11.84594832 204.13268825 12.03964909 207.66259766 12.23486328 C221.83611486 13.02255512 221.83611486 13.02255512 236.01533508 13.69683838 C238.9892671 13.82697787 241.96229512 13.97279252 244.93533325 14.12182617 C246.84870136 14.21124165 248.7631297 14.27701732 250.67749023 14.34179688 C259.13652138 14.78038207 264.76571874 16.84394077 271.3203125 22.19140625 C280.55088305 32.80072025 280.60318439 43.66240768 279.83236694 57.16619873 C279.53385855 61.27672745 279.19610372 65.38211567 278.84375 69.48828125 C278.71684065 71.01845437 278.59048091 72.54867317 278.46463013 74.07893372 C278.19888225 77.29845092 277.92979897 80.51766306 277.65786743 83.73666382 C277.23304336 88.7670735 276.81615217 93.79811947 276.40112305 98.8293457 C276.33243798 99.66181981 276.26375292 100.49429392 276.19298649 101.35199451 C276.05516484 103.02261391 275.91736926 104.69323545 275.77960014 106.36385918 C275.57511011 108.84076585 275.36991818 111.31761352 275.16456604 113.79444885 C274.17839555 125.70163159 273.23983228 137.61155067 272.36328125 149.52734375 C272.25105294 151.03971921 272.13874936 152.55208909 272.02636719 154.06445312 C271.56910015 160.23442496 271.11792059 166.40481982 270.67285156 172.57568359 C270.34708663 177.08858211 270.01514383 181.60099496 269.67977905 186.1131897 C269.55455252 187.81449448 269.43159465 189.51596817 269.31118774 191.21762085 C267.6843501 214.19941983 267.6843501 214.19941983 262.05078125 224.33984375 C261.39078125 224.33984375 260.73078125 224.33984375 260.05078125 224.33984375 C259.86515625 224.89671875 259.67953125 225.45359375 259.48828125 226.02734375 C255.37891328 232.63806613 248.21378469 234.66444037 241.05078125 236.33984375 C237.37910449 236.87961067 233.71466058 237.14162769 230.01171875 237.3671875 C228.9564801 237.44088058 227.90124146 237.51457367 226.81402588 237.59049988 C223.35190276 237.82992276 219.88894297 238.05349461 216.42578125 238.27734375 C213.9951979 238.44330137 211.56469744 238.61047706 209.13427734 238.77880859 C204.04496011 239.12981317 198.95529417 239.47487612 193.86523438 239.81494141 C182.34374347 240.58605489 170.82487175 241.39387123 159.30645752 242.20950317 C155.76105708 242.45884642 152.21529319 242.7023542 148.66943359 242.94506836 C144.36580098 243.24055067 140.06582926 243.56398748 135.76611328 243.91162109 C132.22096462 244.19717739 128.69936265 244.39276934 125.14404297 244.47509766 C115.25944077 244.86666291 109.70376546 247.84601224 103.01171875 255.01171875 C101.98221591 256.16199396 100.95357417 257.31304044 99.92578125 258.46484375 C98.86168242 259.59585477 97.79397876 260.72348531 96.72265625 261.84765625 C91.84144387 267.00781125 87.14586398 272.33102463 82.49511719 277.69921875 C80.49091462 279.97579773 78.38635587 282.13679304 76.23828125 284.27734375 C75.11486328 285.40462891 75.11486328 285.40462891 73.96875 286.5546875 C71.14227815 289.18543625 69.38841488 289.51545688 65.61328125 289.58984375 C64.83082031 289.615625 64.04835938 289.64140625 63.2421875 289.66796875 C60.53339774 289.26237456 59.72917185 288.45451326 58.05078125 286.33984375 C54.63727551 279.51283226 55.74065374 269.2533616 55.48828125 261.77734375 C55.44509766 260.57787109 55.40191406 259.37839844 55.35742188 258.14257812 C55.25221323 255.20842582 55.15007242 252.27420125 55.05078125 249.33984375 C54.26525879 249.571875 54.26525879 249.571875 53.46386719 249.80859375 C50.4497404 250.47216517 47.52263395 250.65069741 44.44140625 250.83984375 C43.13679443 250.92210205 41.83218262 251.00436035 40.48803711 251.08911133 C39.09231344 251.17315989 37.69656082 251.25672875 36.30078125 251.33984375 C33.47391845 251.50976092 30.64710307 251.68044807 27.8203125 251.8515625 C26.78995628 251.91327888 26.78995628 251.91327888 25.73878479 251.97624207 C22.1320776 252.19633021 18.53468933 252.45511549 14.9375 252.796875 C2.86889354 253.88316895 -7.99302713 252.95296651 -17.82421875 245.3046875 C-24.04976276 239.54834809 -27.81584904 233.43564153 -28.6953125 224.921875 C-28.86522705 223.31711304 -28.86522705 223.31711304 -29.03857422 221.67993164 C-29.15346191 220.51582764 -29.26834961 219.35172363 -29.38671875 218.15234375 C-29.51449707 216.9089624 -29.64227539 215.66558105 -29.77392578 214.38452148 C-30.83979101 203.844226 -31.77385012 193.29235682 -32.68334961 182.73754883 C-33.86199137 169.09766905 -35.15375399 155.46906068 -36.44921875 141.83984375 C-37.96931668 125.83227902 -39.46777463 109.82414203 -40.84887695 93.80395508 C-41.53192442 85.92237602 -42.25932163 78.04640674 -43.01953125 70.171875 C-43.20638315 68.221525 -43.39315068 66.27116692 -43.57983398 64.32080078 C-43.85349884 61.46248354 -44.12908861 58.60443717 -44.41189575 55.74700928 C-47.62150292 23.31473832 -47.62150292 23.31473832 -40.37109375 13.12109375 C-29.09391399 -0.49279893 -16.69189766 -1.12408647 0 0 Z " fill="#1676FE" transform="translate(129.94921875,90.66015625)"/>
<path d="M0 0 C78.16438356 0 78.16438356 0 92 10 C93.36125 10.8971875 93.36125 10.8971875 94.75 11.8125 C98.16977807 15.13728423 100.57480515 18.91124174 103 23 C103.39574219 23.64453125 103.79148437 24.2890625 104.19921875 24.953125 C110.10098918 36.09847585 110.3253398 52.14920056 107 64 C102.44741076 75.86432347 96.19142319 84.19827065 84.8828125 90.1875 C83 91 83 91 81 91 C87.51210565 103.12704512 94.07623583 115.21832257 100.875 127.1875 C108.16875965 140.03789285 108.16875965 140.03789285 111.3125 145.8125 C111.84488281 146.78832031 112.37726563 147.76414062 112.92578125 148.76953125 C114 151 114 151 114 153 C105.09 153 96.18 153 87 153 C80.04823433 140.86600901 73.47115 128.55003647 66.94165039 116.18554688 C66.58042084 115.50234879 66.21919128 114.8191507 65.84701538 114.11524963 C65.16860608 112.83176381 64.49121654 111.54773819 63.81509399 110.26304626 C62.19349276 107.19478408 60.52109941 104.17110569 58.76293945 101.17993164 C57 98 57 98 57 96 C46.11 96 35.22 96 24 96 C24 114.81 24 133.62 24 153 C16.08 153 8.16 153 0 153 C0 102.51 0 52.02 0 0 Z M24 20 C24 38.15 24 56.3 24 75 C32.6315625 75.061875 32.6315625 75.061875 41.4375 75.125 C44.13377563 75.15231201 44.13377563 75.15231201 46.88452148 75.18017578 C48.33837589 75.18602694 49.79223361 75.19112101 51.24609375 75.1953125 C52.34298523 75.2106604 52.34298523 75.2106604 53.46203613 75.22631836 C63.01487789 75.22948208 71.5074639 73.29736985 78.5390625 66.515625 C84.95167187 59.24050092 84.68737682 51.16609276 84.19970703 41.9921875 C83.63315169 36.3404863 81.2141522 32.4766716 77.6875 28.1875 C66.32287913 18.9372272 52.73473042 19.70449277 38.6875 19.875 C33.840625 19.91625 28.99375 19.9575 24 20 Z " fill="#FFFFFF" transform="translate(487,143)"/>
<path d="M0 0 C1.31822754 0.01244751 1.31822754 0.01244751 2.66308594 0.02514648 C12.4548648 0.28057629 19.1249019 2.8087312 26.30078125 9.5625 C33.0625 16.75900776 33.0625 16.75900776 33.0625 20.4375 C33.7225 20.4375 34.3825 20.4375 35.0625 20.4375 C35.0625 14.1675 35.0625 7.8975 35.0625 1.4375 C42.3225 1.4375 49.5825 1.4375 57.0625 1.4375 C57.0625 53.5775 57.0625 105.7175 57.0625 159.4375 C49.4725 159.4375 41.8825 159.4375 34.0625 159.4375 C33.7325 139.9675 33.4025 120.4975 33.0625 100.4375 C31.0825 103.0775 29.1025 105.7175 27.0625 108.4375 C20.2992827 115.70217258 12.96281482 118.93984237 3.078125 119.5625 C-10.30948413 119.94229033 -22.18023982 116.165582 -32.1875 107.0625 C-46.41874231 91.8229249 -48.72556143 72.77856451 -48.28515625 52.7890625 C-47.62704326 36.84810349 -42.41071169 23.34584457 -31.359375 11.6640625 C-22.42918538 3.45404946 -11.98817141 -0.14622529 0 0 Z M-15.9375 28.4375 C-24.58735919 39.0880069 -26.02162813 53.15693042 -24.9375 66.4375 C-23.44557814 77.20420274 -20.11372011 87.34941077 -11.5625 94.5 C-5.28943196 98.89219839 1.39836347 100.33575419 9.0625 99.4375 C17.74111795 97.75973555 23.90758638 92.90878487 28.875 85.6875 C33.52231632 77.35125101 34.59973157 68.40484514 34.5 59 C34.49242676 57.99372559 34.48485352 56.98745117 34.47705078 55.95068359 C34.23040236 44.82629966 31.60888063 34.92283121 24.0625 26.4375 C18.44836882 21.68528937 12.43045903 19.91227816 5.1875 19.125 C-2.99784341 19.94353434 -10.09504063 22.51965405 -15.9375 28.4375 Z " fill="#FFFFFF" transform="translate(785.9375,179.5625)"/>
<path d="M0 0 C12.02222123 8.26527709 18.05923158 19.41221669 21.0625 33.5625 C22.1875 41.8125 22.1875 41.8125 22.1875 58.8125 C-4.5425 59.1425 -31.2725 59.4725 -58.8125 59.8125 C-56.75294254 71.14006602 -55.09132393 79.20254364 -45.8828125 86.40625 C-37.73867519 91.93811685 -28.33700081 91.80989284 -18.8125 90.8125 C-11.56564547 89.23623479 -6.95939327 84.82302685 -2.8125 78.8125 C-2.3175 77.3275 -2.3175 77.3275 -1.8125 75.8125 C5.63305532 76.79548062 12.94777807 77.78537786 20.1875 79.8125 C19.75941426 87.94612915 14.72851921 94.68444944 9 100.125 C-2.84258258 109.91486827 -18.74399924 113.08766514 -33.8125 111.8125 C-48.35763574 109.97574224 -61.52424065 104.47548957 -70.8125 92.8125 C-82.79156653 76.20332236 -84.68810969 56.11400263 -81.56640625 36.3359375 C-79.5283068 26.81072662 -75.67535285 18.55083534 -69.8125 10.8125 C-69.07 9.78125 -68.3275 8.75 -67.5625 7.6875 C-50.13513811 -10.5320147 -21.25189388 -12.45001957 0 0 Z M-52.8125 22.8125 C-57.4352276 28.77338558 -58.8125 33.25848681 -58.8125 40.8125 C-39.6725 40.8125 -20.5325 40.8125 -0.8125 40.8125 C-1.84782078 30.45929218 -3.29536818 24.2862534 -10.78125 17.35546875 C-24.76630675 6.73220449 -41.44555028 10.98159315 -52.8125 22.8125 Z " fill="#FFFFFF" transform="translate(696.8125,187.1875)"/>
<path d="M0 0 C1.44185669 0.01135986 1.44185669 0.01135986 2.9128418 0.02294922 C14.62120087 0.29305871 23.83980582 3.203032 33.1875 10.4375 C34.21875 11.159375 35.25 11.88125 36.3125 12.625 C46.5643805 21.53844054 50.18739207 35.29875296 51.890625 48.17578125 C52.31369812 54.24910716 52.1875 60.3494561 52.1875 66.4375 C25.1275 66.4375 -1.9325 66.4375 -29.8125 66.4375 C-26.16491741 83.8035152 -26.16491741 83.8035152 -14.6875 94.9375 C-6.727505 99.4010486 2.253633 99.42213522 11.1875 98.4375 C17.87358335 96.52247366 22.31032111 93.13210649 26.1875 87.4375 C26.87023815 86.11232422 27.54054535 84.78050853 28.1875 83.4375 C35.63305532 84.42048062 42.94777807 85.41037786 50.1875 87.4375 C49.2156157 95.21257439 44.88884727 102.19842413 39.1875 107.4375 C25.41135729 118.02079278 9.40670219 121.15235054 -7.63671875 118.94140625 C-15.39670955 117.55261113 -22.12009962 115.64481216 -28.8125 111.4375 C-29.56917969 110.96828125 -30.32585938 110.4990625 -31.10546875 110.015625 C-41.09222837 103.07130334 -47.71353719 92.06289086 -50.8125 80.4375 C-51.03550781 79.61378906 -51.25851562 78.79007812 -51.48828125 77.94140625 C-55.90567789 58.19834779 -52.51871942 37.51848684 -41.8125 20.4375 C-31.88620998 6.34143016 -16.91722238 -0.18785318 0 0 Z M-22.8984375 30.00390625 C-27.54709834 35.91434646 -28.74854204 40.9897943 -29.8125 48.4375 C-10.3425 48.4375 9.1275 48.4375 29.1875 48.4375 C28.11167729 38.75509563 26.55817909 32.21655526 19.375 25.5 C5.84242847 14.83492504 -11.53017946 17.77198196 -22.8984375 30.00390625 Z " fill="#FFFFFF" transform="translate(1044.8125,179.5625)"/>
<path d="M0 0 C8.25 0 16.5 0 25 0 C31.61374956 19.72851432 38.17374279 39.47477859 44.66064453 59.24539185 C45.38728894 61.45803792 46.11548113 63.67017628 46.84521484 65.88180542 C47.87506959 69.00444618 48.89919936 72.12890814 49.921875 75.25390625 C50.23380798 76.19610016 50.54574097 77.13829407 50.86712646 78.10903931 C51.14912903 78.97483612 51.43113159 79.84063293 51.72167969 80.73266602 C51.96972351 81.48790054 52.21776733 82.24313507 52.47332764 83.02125549 C53 85 53 85 53 88 C53.66 88 54.32 88 55 88 C55.11405119 87.44630013 55.22810238 86.89260027 55.34560966 86.32212162 C56.47845022 81.00428447 57.89211053 75.880823 59.61376953 70.72631836 C59.86765442 69.95447205 60.12153931 69.18262573 60.38311768 68.38739014 C61.21223547 65.87016243 62.04745925 63.35500831 62.8828125 60.83984375 C63.46326092 59.08163293 64.04332283 57.32329446 64.62301636 55.56483459 C66.141477 50.96215099 67.66514538 46.36120814 69.18994141 41.76062012 C70.74829438 37.05565547 72.30166533 32.34904678 73.85546875 27.64257812 C76.89879996 18.42677696 79.94809987 9.21296703 83 0 C91.25 0 99.5 0 108 0 C104.62423783 11.25254058 104.62423783 11.25254058 102.88134766 16.10571289 C102.48811813 17.20434158 102.09488861 18.30297028 101.68974304 19.43489075 C101.05828117 21.18608467 101.05828117 21.18608467 100.4140625 22.97265625 C99.95972592 24.23815085 99.50557349 25.50371158 99.05158997 26.76933289 C97.83285807 30.16410156 96.61041117 33.55751975 95.38666916 36.95048523 C94.6219572 39.07093732 93.85791885 41.19163111 93.09402466 43.31237793 C89.40719692 53.54563948 85.70684636 63.7739747 82 74 C81.74521126 74.70314079 81.49042252 75.40628159 81.2279129 76.13072968 C78.09484043 84.77651097 74.95116511 93.41831574 71.78948975 102.05368042 C70.89594329 104.49662296 70.00466652 106.94039699 69.11578369 109.38504028 C67.87459026 112.79577675 66.62412026 116.20297087 65.37109375 119.609375 C65.01570023 120.59113205 64.6603067 121.5728891 64.29414368 122.58439636 C59.58857591 135.29316896 54.37934863 148.4810274 41.75 155 C35.58360938 157.82789888 30.32812207 158.18239091 23.625 158.1875 C22.78710938 158.19974609 21.94921875 158.21199219 21.0859375 158.22460938 C16.31538183 158.23586069 12.48268435 157.84709958 8 156 C8.64438933 153.39546825 9.2904504 150.7913709 9.9375 148.1875 C10.11990234 147.44951172 10.30230469 146.71152344 10.49023438 145.95117188 C11.2422615 142.92939016 12.01485573 139.95543282 13 137 C14.01320313 137.04640625 15.02640625 137.0928125 16.0703125 137.140625 C17.42184532 137.17816758 18.77341028 137.21456506 20.125 137.25 C21.12273437 137.30027344 21.12273437 137.30027344 22.140625 137.3515625 C27.29895123 137.45270615 30.12129482 136.3596842 34 133 C35.93685677 130.23149242 35.93685677 130.23149242 37.3125 127.125 C37.80363281 126.11695313 38.29476563 125.10890625 38.80078125 124.0703125 C40.90511354 118.68267349 41.37361058 114.9256881 39.36376953 109.46508789 C38.97752411 108.39435532 38.59127869 107.32362274 38.19332886 106.22044373 C37.76085846 105.06617386 37.32838806 103.91190399 36.8828125 102.72265625 C36.43865997 101.50324844 35.99450745 100.28384064 35.53689575 99.02748108 C34.33169827 95.71887121 33.1096966 92.41670045 31.88465881 89.11539459 C30.61542078 85.68541806 29.36248529 82.24950347 28.10839844 78.81396484 C26.07009332 73.2351037 24.02384502 67.65922592 21.97167969 62.08544922 C18.05885433 51.45472667 14.19813807 40.80520447 10.34613037 30.15231323 C9.26938366 27.17853417 8.1881623 24.20641548 7.10595703 21.23461914 C6.4507658 19.4298795 5.79565048 17.6251123 5.140625 15.8203125 C4.84890411 15.02198502 4.55718323 14.22365753 4.25662231 13.40113831 C3.85164017 12.28242592 3.85164017 12.28242592 3.43847656 11.14111328 C3.20727112 10.50569611 2.97606567 9.87027893 2.737854 9.21560669 C1.72532271 6.17520696 0.88036228 3.08126798 0 0 Z " fill="#FFFFFF" transform="translate(1302,181)"/>
<path d="M0 0 C7.92 0 15.84 0 24 0 C24.0093457 2.35125 24.01869141 4.7025 24.02832031 7.125 C24.06215789 14.91231315 24.11774445 22.6993632 24.18390274 30.48646545 C24.2233337 35.20567166 24.25554362 39.9246925 24.27099609 44.64404297 C24.28619161 49.20247557 24.32068828 53.7603984 24.36830902 58.31860352 C24.38309303 60.05358437 24.3910393 61.78863801 24.39188385 63.52368164 C24.39426433 65.96294871 24.42142845 68.40081923 24.45410156 70.83984375 C24.4490712 71.54978989 24.44404083 72.25973602 24.43885803 72.99119568 C24.56741871 79.23511289 26.73065285 84.25985589 30.67578125 89.0234375 C35.59129138 93.08254611 39.85777388 94.63743545 46.25 95.375 C52.84132821 94.71586718 59.36492438 92.87241383 64 88 C64.66 88 65.32 88 66 88 C66.4021875 87.195625 66.4021875 87.195625 66.8125 86.375 C67.70425428 84.59149144 68.62608084 82.82296802 69.5625 81.0625 C71.95914102 75.95661262 72.13756725 71.33550896 72.20532227 65.73120117 C72.21522186 65.01846039 72.22512146 64.3057196 72.23532104 63.57138062 C72.26676774 61.2286098 72.29162646 58.88581876 72.31640625 56.54296875 C72.33699034 54.9134317 72.35798718 53.28389981 72.37937927 51.65437317 C72.43444976 47.37517492 72.483925 43.09592968 72.53222656 38.81665039 C72.58255159 34.446084 72.63818012 30.07558545 72.69335938 25.70507812 C72.80075709 17.13677467 72.90175215 8.56841326 73 0 C80.59 0 88.18 0 96 0 C96 37.95 96 75.9 96 115 C88.41 115 80.82 115 73 115 C72.67 109.39 72.34 103.78 72 98 C70.68 99.98 69.36 101.96 68 104 C61.93213246 111.31033565 54.49322663 115.68505983 45 117 C34.25134532 117.94336597 23.64755242 116.51313464 14.5625 110.3125 C5.20686328 102.43406908 1.10693956 90.87854964 0 79 C-0.08286959 76.27027715 -0.12734188 73.56813536 -0.11352539 70.83984375 C-0.11367142 70.06814346 -0.11381744 69.29644318 -0.1139679 68.50135803 C-0.11327768 65.98004226 -0.10552751 63.45880268 -0.09765625 60.9375 C-0.0957889 59.17773479 -0.09436649 57.41796905 -0.09336853 55.65820312 C-0.08956832 51.04854879 -0.0797596 46.43892645 -0.06866455 41.82928467 C-0.05839652 37.11666293 -0.0538594 32.40403597 -0.04882812 27.69140625 C-0.03813488 18.46092125 -0.02055854 9.2304683 0 0 Z " fill="#FFFFFF" transform="translate(872,181)"/>
<path d="M0 0 C9.08584885 2.05380367 17.89542413 5.81504547 26.30078125 9.75390625 C30.10200813 11.50874181 33.96875339 13.09020301 37.83984375 14.68359375 C41.20229605 16.08426918 44.53713712 17.54178281 47.875 19 C53.71602167 21.51990979 59.6203604 23.69802104 65.6484375 25.7265625 C68.88132673 26.95490969 71.85741269 28.40033633 74.92919922 29.97412109 C78.33713517 31.66241947 81.85034762 33.07593878 85.375 34.5 C86.11306885 34.80115723 86.8511377 35.10231445 87.61157227 35.41259766 C92.46920538 37.39141654 97.33558609 39.34851595 102.21484375 41.2734375 C104 42 104 42 106 43 C106 53.56 106 64.12 106 75 C102.7825 76.381875 99.565 77.76375 96.25 79.1875 C94.76935059 79.82401489 94.76935059 79.82401489 93.25878906 80.47338867 C86.52497723 83.36222824 79.76711468 86.19019529 73 89 C70.99988456 89.83305621 68.9998843 90.66638905 67 91.5 C55 96.5 55 96.5 52.01782227 97.74194336 C49.95782043 98.60070798 47.89843909 99.46096218 45.83959961 100.32250977 C40.43367614 102.58261575 35.01833701 104.80099175 29.5625 106.9375 C23.42416905 109.35764195 17.4624511 112.04384265 11.51171875 114.8984375 C9 116 9 116 7 116 C5.62616537 104.60453238 4.69099734 93.48459891 5 82 C7.35388718 81.16587085 9.70806154 80.33257108 12.0625 79.5 C12.81112305 79.23517822 13.55974609 78.97035645 14.33105469 78.69750977 C18.81317442 77.11513058 23.30001864 75.54747114 27.79296875 73.99609375 C37.9311286 70.49454725 48.03649656 66.97690975 58 63 C58.99 62.60683594 59.98 62.21367187 61 61.80859375 C63.33549709 60.87763866 65.66890466 59.94190985 68 59 C65.85461952 58.22790717 63.70866987 57.45739586 61.5625 56.6875 C60.36753906 56.25824219 59.17257813 55.82898438 57.94140625 55.38671875 C50.75451863 52.83599888 43.49356974 50.49967618 36.23828125 48.15234375 C35.04684761 47.76629723 35.04684761 47.76629723 33.8313446 47.37245178 C31.32517869 46.56044373 28.8188541 45.748927 26.3125 44.9375 C23.79544896 44.1224572 21.27843558 43.30729879 18.76152039 42.49183655 C17.20448414 41.98738062 15.64736991 41.4831653 14.09016418 40.97923279 C10.05368218 39.67161185 6.02309392 38.34843229 2 37 C1.71153244 33.01669261 1.42685352 29.03313331 1.14550781 25.04931641 C1.00260187 23.03664439 0.85679651 21.02417891 0.7109375 19.01171875 C0.26403057 12.65925596 -0.12997045 6.36855229 0 0 Z " fill="#FBFCFF" transform="translate(151,153)"/>
<path d="M0 0 C6.75005892 5.59932122 12.00009908 11.78719089 14.6875 20.25 C14.6875 21.24 14.6875 22.23 14.6875 23.25 C12.3138603 23.75734284 9.93892575 24.25602386 7.5625 24.75 C6.89734375 24.89308594 6.2321875 25.03617188 5.546875 25.18359375 C-2.26066591 26.79102864 -2.26066591 26.79102864 -6.3125 26.25 C-7.96484375 24.421875 -7.96484375 24.421875 -9.25 22 C-12.35453486 16.81762685 -15.32757535 14.47105352 -21.19921875 12.671875 C-30.40163878 10.834793 -39.22391783 12.66011933 -47.3125 17.25 C-49.56710037 21.19555065 -49.7122114 24.77323228 -49.3125 29.25 C-47.67397733 33.65352968 -45.13007805 35.18867839 -40.98779297 37.19067383 C-35.15345156 39.50087709 -28.96689664 40.78823031 -22.875 42.25 C-8.28199746 45.76068592 5.68319641 49.20768397 14.6875 62.25 C18.0035942 70.12019691 18.10105758 79.53097508 15.66015625 87.6796875 C11.25542047 97.27005404 4.08844078 103.84318348 -5.4609375 108.21875 C-21.25100767 113.92913154 -39.07676146 114.31159752 -54.68359375 107.85546875 C-64.34354928 103.18511081 -71.47217786 97.77473403 -75.359375 87.4765625 C-77.3125 81.04599057 -77.3125 81.04599057 -77.3125 79.25 C-74.41746617 78.74494737 -71.52162047 78.2457978 -68.625 77.75 C-67.80837891 77.60691406 -66.99175781 77.46382813 -66.15039062 77.31640625 C-62.16271752 76.63834038 -58.37519596 76.05141608 -54.3125 76.25 C-54.02117187 76.92546875 -53.72984375 77.6009375 -53.4296875 78.296875 C-50.2042237 85.31580881 -47.50206267 88.57417493 -40.1875 91.5 C-30.77072165 93.32260226 -21.53756923 93.11868709 -13.23828125 87.9609375 C-9.89025909 85.42105862 -8.49594346 83.82071298 -7.1875 79.75 C-7.33683328 75.56866811 -7.86723027 73.6585578 -10.3125 70.25 C-16.25962762 65.0534611 -23.39452098 63.80095416 -30.94046021 62.28143311 C-59.82551026 56.40281185 -59.82551026 56.40281185 -68.859375 44.15234375 C-69.25640625 43.50394531 -69.6534375 42.85554688 -70.0625 42.1875 C-70.46984375 41.53652344 -70.8771875 40.88554687 -71.296875 40.21484375 C-74.74592134 33.54226564 -74.31116486 24.47863237 -72.62890625 17.35546875 C-68.52140439 6.26010065 -61.06506583 0.88436686 -50.62109375 -4.01171875 C-35.19489996 -9.86586686 -13.75118865 -9.47822043 0 0 Z " fill="#FFFFFF" transform="translate(1192.3125,186.75)"/>
<path d="M0 0 C7.59 0 15.18 0 23 0 C23 8.91 23 17.82 23 27 C30.59 27 38.18 27 46 27 C46 33.27 46 39.54 46 46 C38.41 46 30.82 46 23 46 C23.0629934 54.76269494 23.13846705 63.52504103 23.23571491 72.28742409 C23.28037978 76.35647208 23.31964426 80.42542086 23.34643555 84.49462891 C23.37250758 88.42407931 23.41293704 92.35314709 23.46318626 96.28236008 C23.47982873 97.77895715 23.49135932 99.27562037 23.49761391 100.77229691 C23.50728401 102.87415616 23.53537527 104.97504237 23.56762695 107.07666016 C23.58428154 108.8686937 23.58428154 108.8686937 23.60127258 110.69692993 C24.04664423 114.38640224 25.10358977 116.82271558 27 120 C30.3046409 122.55890335 33.69092623 122.20618148 37.75 122.125 C39.50570313 122.09792969 39.50570313 122.09792969 41.296875 122.0703125 C42.63492187 122.03550781 42.63492187 122.03550781 44 122 C46.72217734 128.50806263 48.36412836 134.89949691 48 142 C36.62558132 145.56844508 24.855053 145.09775274 14 140 C6.50981741 135.04355842 2.28334831 129.6756236 0 121 C-0.53399906 115.19872976 -0.46779453 109.43758042 -0.390625 103.6171875 C-0.3831509 101.9499683 -0.3774635 100.28274022 -0.37347412 98.61550903 C-0.35830959 94.25882072 -0.31910896 89.9026784 -0.2746582 85.54620361 C-0.23350555 81.08816917 -0.2154207 76.63004524 -0.1953125 72.171875 C-0.15260396 63.44764 -0.0823313 54.72395114 0 46 C-5.61 46 -11.22 46 -17 46 C-17 39.73 -17 33.46 -17 27 C-11.39 27 -5.78 27 0 27 C0 18.09 0 9.18 0 0 Z " fill="#FFFFFF" transform="translate(1241,154)"/>
<path d="M0 0 C0 7.26 0 14.52 0 22 C-15.71597515 23.23851985 -31.37830582 24.23733312 -47.1394043 24.65795898 C-53.30666096 24.83062635 -59.39802805 25.18105794 -65.53735352 25.78833008 C-71.01972789 26.2595523 -76.50099914 26.05444555 -82 26 C-82 18.08 -82 10.16 -82 2 C-67.21012984 1.27092189 -52.42765954 0.79450666 -37.625 0.4375 C-36.73379456 0.41535431 -35.84258911 0.39320862 -34.92437744 0.37039185 C-23.27912283 0.08362548 -11.64893811 -0.04417257 0 0 Z " fill="#FCFDFF" transform="translate(350,263)"/>
<path d="M0 0 C-1.59092052 4.13639336 -4.60474918 7.23213248 -8 10 C-8.66 10 -9.32 10 -10 10 C-8.50006099 6.10015857 -4.53875449 0 0 0 Z " fill="#0C49A7" transform="translate(99,96)"/>
</svg>
